<svg xmlns="http://www.w3.org/2000/svg" version="1.1" xmlns:xlink="http://www.w3.org/1999/xlink" xmlns:svgjs="http://svgjs.dev/svgjs" width="1920" height="1920" preserveAspectRatio="none" viewBox="0 0 1920 1920"><g mask="url(&quot;#SvgjsMask1028&quot;)" fill="none"><path d="M84.156,292.593C151.053,286.799,189.595,222.436,219.739,162.435C246.022,110.12,257.494,51.532,231.656,-1.004C202.432,-60.424,150.373,-112.919,84.156,-113.24C17.535,-113.562,-31.361,-59.45,-65.839,-2.444C-101.966,57.289,-130.925,127.84,-99.289,190.068C-65.264,256.995,9.356,299.072,84.156,292.593" fill="rgba(189, 189, 189, 0.4)" class="triangle-float3"></path><path d="M144.526,392.335C225.645,388.275,280.85,316.819,316.793,243.984C348.128,180.486,349.611,107.864,315.54,45.791C280.05,-18.866,218.125,-65.04,144.526,-69.862C61.449,-75.305,-26.601,-50.369,-70.268,20.515C-115.718,94.294,-103.79,187.831,-60.444,262.866C-17.118,337.865,58.02,396.665,144.526,392.335" fill="rgba(189, 189, 189, 0.4)" class="triangle-float2"></path><path d="M195.686,469.912C297.925,470.957,401.503,432.575,452.729,344.09C504.045,255.45,483.715,147.639,434.146,58.011C382.623,-35.149,302.143,-120.211,195.686,-120.677C88.628,-121.146,4.434,-38.303,-46.421,55.906C-94.463,144.903,-103.468,251.623,-52.414,338.927C-1.816,425.451,95.458,468.888,195.686,469.912" fill="rgba(189, 189, 189, 0.4)" class="triangle-float2"></path><path d="M1776.724,545.276C1889.42,543.281,2001.509,500.651,2058.526,403.422C2116.143,305.17,2101.409,184.753,2046.739,84.831C1989.477,-19.828,1895.96,-115.546,1776.724,-111.634C1661.828,-107.865,1592.698,1.736,1535.744,101.594C1479.531,200.152,1422.938,314.012,1477.091,413.717C1532.891,516.453,1659.83,547.346,1776.724,545.276" fill="rgba(189, 189, 189, 0.4)" class="triangle-float1"></path><path d="M1908.576,842.767C2078.716,846.253,2245.607,763.574,2326.208,613.696C2403.317,470.31,2363.265,297.843,2275.293,160.852C2194.885,35.64,2057.326,-32.511,1908.576,-36.646C1751.249,-41.019,1587.089,5.296,1504.761,139.434C1419.174,278.883,1438.101,455.275,1519.569,597.17C1601.406,739.707,1744.25,839.4,1908.576,842.767" fill="rgba(189, 189, 189, 0.4)" class="triangle-float1"></path><path d="M1676.801,366.998C1759.909,370.198,1845.104,333.925,1883.672,260.238C1920.212,190.426,1886.775,110.549,1846.464,42.845C1807.392,-22.778,1753.175,-87.216,1676.801,-87.205C1600.44,-87.194,1543.729,-24.175,1507.22,42.893C1472.591,106.508,1462.221,181.127,1495.799,245.302C1531.924,314.345,1598.936,364,1676.801,366.998" fill="rgba(189, 189, 189, 0.4)" class="triangle-float3"></path><path d="M121.345,1839.29C187.073,1835.617,245.825,1805.022,282.858,1750.595C326.107,1687.034,360.148,1608.125,325.249,1539.622C287.975,1466.457,203.386,1430.133,121.345,1433.562C44.803,1436.761,-16.497,1489.302,-55.03,1555.515C-93.839,1622.203,-115.514,1705.047,-74.783,1770.58C-35.591,1833.638,47.216,1843.432,121.345,1839.29" fill="rgba(189, 189, 189, 0.4)" class="triangle-float2"></path><path d="M232.066,2079.929C337.022,2071.935,419.228,1997.611,469.065,1904.897C515.96,1817.655,521.127,1715.45,475.139,1627.727C425.464,1532.97,338.991,1456.497,232.066,1452.818C119.326,1448.939,18.037,1514.321,-41.818,1609.939C-105.962,1712.408,-137.829,1842.035,-76.962,1946.484C-16.413,2050.388,112.154,2089.062,232.066,2079.929" fill="rgba(189, 189, 189, 0.4)" class="triangle-float2"></path><path d="M350.943,2314.601C507.067,2315.107,658.149,2244.583,736.998,2109.832C816.596,1973.8,807.162,1805.535,728.857,1668.755C650.027,1531.058,509.3,1425.61,350.943,1435.487C204.521,1444.619,119.195,1583.745,46.719,1711.3C-24.507,1836.655,-95.716,1978.607,-30.799,2107.342C39.076,2245.909,195.756,2314.098,350.943,2314.601" fill="rgba(189, 189, 189, 0.4)" class="triangle-float1"></path><path d="M1915.465,2408.905C2080.267,2406.419,2201.853,2271.033,2279.685,2125.747C2352.507,1989.814,2370.844,1830.521,2298.182,1694.503C2221.178,1550.356,2078.875,1446.247,1915.465,1443.952C1748.358,1441.605,1594.617,1537.277,1513.661,1683.483C1435.106,1825.353,1453.125,1995.173,1531.699,2137.032C1613.112,2284.016,1747.459,2411.44,1915.465,2408.905" fill="rgba(189, 189, 189, 0.4)" class="triangle-float2"></path><path d="M2029.809,2530.578C2203.356,2520.112,2342.832,2410.992,2437.856,2265.395C2545.409,2100.601,2655.468,1895.783,2554.253,1727.022C2454.414,1560.555,2223.779,1577.64,2029.809,1585.036C1853.703,1591.751,1669.876,1619.1,1570.343,1764.536C1457.845,1928.915,1424.116,2149.535,1526.572,2320.354C1626.794,2487.448,1835.316,2542.308,2029.809,2530.578" fill="rgba(189, 189, 189, 0.4)" class="triangle-float1"></path><path d="M1782.281,2061.233C1894.873,2068.55,2019.196,2049.256,2079.235,1953.727C2142.167,1853.595,2120.952,1723.184,2057.447,1623.414C1998.545,1530.877,1891.857,1482.127,1782.281,1487.197C1681.059,1491.881,1596.68,1558.146,1547.949,1646.989C1501.206,1732.208,1497.557,1834.437,1545.413,1919.036C1594.01,2004.945,1683.787,2054.832,1782.281,2061.233" fill="rgba(189, 189, 189, 0.4)" class="triangle-float2"></path></g><defs><mask id="SvgjsMask1028"><rect width="1920" height="1920" fill="#ffffff"></rect></mask><style>
                @keyframes float1 {
                    0%{transform: translate(0, 0)}
                    50%{transform: translate(-10px, 0)}
                    100%{transform: translate(0, 0)}
                }

                .triangle-float1 {
                    animation: float1 5s infinite;
                }

                @keyframes float2 {
                    0%{transform: translate(0, 0)}
                    50%{transform: translate(-5px, -5px)}
                    100%{transform: translate(0, 0)}
                }

                .triangle-float2 {
                    animation: float2 4s infinite;
                }

                @keyframes float3 {
                    0%{transform: translate(0, 0)}
                    50%{transform: translate(0, -10px)}
                    100%{transform: translate(0, 0)}
                }

                .triangle-float3 {
                    animation: float3 6s infinite;
                }
            </style></defs></svg>