<svg xmlns="http://www.w3.org/2000/svg" version="1.1" xmlns:xlink="http://www.w3.org/1999/xlink" xmlns:svgjs="http://svgjs.dev/svgjs" width="1920" height="1920" preserveAspectRatio="none" viewBox="0 0 1920 1920"><g mask="url(&quot;#SvgjsMask1017&quot;)" fill="none"><path d="M74.642,240.481C131.938,240.846,178.542,200.773,208.259,151.785C239.364,100.507,259.104,37.394,229.462,-14.744C199.569,-67.322,135.108,-81.819,74.642,-83.231C10.852,-84.721,-62.052,-77.95,-93.234,-22.281C-124.023,32.685,-89.977,97.009,-56.057,150.101C-25.492,197.942,17.872,240.119,74.642,240.481" fill="rgba(228, 245, 190, 0.4)" class="triangle-float3"></path><path d="M230.095,489.298C332.328,487.144,440.736,469.643,496.115,383.681C555.532,291.451,551.47,171.23,495.969,76.592C441.103,-16.964,338.55,-69.249,230.095,-69.929C120.376,-70.617,15.869,-20.235,-41.616,73.222C-101.967,171.337,-119.064,298.872,-56.081,395.318C2.759,485.42,122.506,491.565,230.095,489.298" fill="rgba(228, 245, 190, 0.4)" class="triangle-float2"></path><path d="M209.162,520.296C316.209,525.641,403.385,445.048,458.113,352.894C514.257,258.355,549.667,139.399,490.346,46.82C433.866,-41.324,313.778,-39.49,209.162,-35.628C113.631,-32.102,9.265,-16.632,-38.229,66.331C-85.517,148.934,-45.702,246.435,-0.157,330.012C48.204,418.754,108.224,515.256,209.162,520.296" fill="rgba(228, 245, 190, 0.4)" class="triangle-float1"></path><path d="M1624.449,274.857C1692.164,276.869,1755.383,242.22,1791.314,184.789C1829.659,123.5,1843.92,45.212,1807.022,-16.959C1770.719,-78.126,1695.577,-96.753,1624.449,-96.364C1554.152,-95.98,1479.367,-76.474,1445.301,-14.982C1411.977,45.17,1437.763,116.865,1473.918,175.359C1507.812,230.196,1560.011,272.943,1624.449,274.857" fill="rgba(228, 245, 190, 0.4)" class="triangle-float2"></path><path d="M1994.633,959.26C2167.825,958.336,2313.184,842.534,2399.237,692.231C2484.684,542.985,2510.101,359.599,2422.777,211.444C2336.611,65.253,2164.283,9.684,1994.633,5.773C1816.285,1.662,1622.28,37.683,1530.878,190.884C1437.83,346.845,1488.641,541.104,1582.484,696.588C1672.71,846.079,1820.026,960.191,1994.633,959.26" fill="rgba(228, 245, 190, 0.4)" class="triangle-float2"></path><path d="M1746.169,531.529C1857.262,532.029,1957.446,460.052,2005.444,359.862C2048.122,270.776,2009.842,171.984,1958.985,87.3C1910.103,5.905,1840.913,-65.69,1746.169,-71.868C1640.624,-78.75,1533.21,-34.905,1479.164,56.013C1424.076,148.685,1438.122,263.541,1490.906,357.545C1544.941,453.777,1635.805,531.032,1746.169,531.529" fill="rgba(228, 245, 190, 0.4)" class="triangle-float1"></path><path d="M69.108,1789.659C137.183,1792.234,204.495,1761.933,239.082,1703.242C274.156,1643.723,269.002,1569.468,233.946,1509.938C199.425,1451.316,136.897,1408.872,69.108,1414.604C8.092,1419.763,-24.563,1480.349,-53.617,1534.252C-80.589,1584.293,-104.584,1639.935,-79.963,1691.174C-52.318,1748.708,5.323,1787.246,69.108,1789.659" fill="rgba(228, 245, 190, 0.4)" class="triangle-float2"></path><path d="M500.087,2561.262C699.391,2568.134,905.351,2500.31,1007.745,2329.183C1112.478,2154.146,1084.581,1934.141,980.176,1758.908C878.381,1588.057,698.885,1471.498,500.087,1477.138C309.762,1482.537,156.724,1618.037,64.969,1784.872C-23.096,1944.996,-39.691,2136.732,49.651,2296.147C140.942,2459.04,313.468,2554.827,500.087,2561.262" fill="rgba(228, 245, 190, 0.4)" class="triangle-float3"></path><path d="M100.219,1815.985C164.833,1812.992,225.387,1783.173,258.104,1727.374C291.202,1670.926,290.363,1601.956,259.565,1544.221C226.735,1482.677,169.943,1429.39,100.219,1431.401C32.868,1433.344,-9.526,1495.061,-43.96,1552.977C-79.512,1612.772,-118.649,1682.275,-85.208,1743.276C-51.002,1805.673,29.137,1819.277,100.219,1815.985" fill="rgba(228, 245, 190, 0.4)" class="triangle-float2"></path><path d="M1882.378,2272.432C2031.696,2269.596,2192.113,2233.627,2264.53,2103.014C2335.44,1975.118,2277.325,1823.141,2200.457,1698.735C2128.442,1582.184,2019.177,1492.04,1882.378,1484.529C1731.447,1476.242,1579.313,1533.069,1497.445,1660.137C1408.731,1797.831,1387.045,1979.355,1474.224,2118.026C1557.202,2250.015,1726.501,2275.393,1882.378,2272.432" fill="rgba(228, 245, 190, 0.4)" class="triangle-float2"></path><path d="M1735.392,2011.384C1828.956,2010.732,1899.973,1938.447,1947.608,1857.915C1996.362,1775.492,2031.692,1674.898,1983.308,1592.257C1935.266,1510.2,1830.452,1493.204,1735.392,1495.442C1645.121,1497.567,1553.067,1525.87,1506.904,1603.474C1459.841,1682.591,1473.005,1780.592,1517.993,1860.907C1564.155,1943.319,1640.934,2012.042,1735.392,2011.384" fill="rgba(228, 245, 190, 0.4)" class="triangle-float3"></path><path d="M1857.911,2211.873C1979.696,2208.055,2073.199,2122.623,2140.645,2021.148C2219.001,1903.258,2304.914,1763.125,2239.668,1637.503C2171.459,1506.177,2005.888,1475.447,1857.911,1476.784C1712.815,1478.095,1558.792,1517.68,1487.918,1644.296C1418.226,1768.8,1464.791,1920.365,1542.709,2039.893C1612.764,2147.359,1729.691,2215.893,1857.911,2211.873" fill="rgba(228, 245, 190, 0.4)" class="triangle-float1"></path></g><defs><mask id="SvgjsMask1017"><rect width="1920" height="1920" fill="#ffffff"></rect></mask><style>
                @keyframes float1 {
                    0%{transform: translate(0, 0)}
                    50%{transform: translate(-10px, 0)}
                    100%{transform: translate(0, 0)}
                }

                .triangle-float1 {
                    animation: float1 5s infinite;
                }

                @keyframes float2 {
                    0%{transform: translate(0, 0)}
                    50%{transform: translate(-5px, -5px)}
                    100%{transform: translate(0, 0)}
                }

                .triangle-float2 {
                    animation: float2 4s infinite;
                }

                @keyframes float3 {
                    0%{transform: translate(0, 0)}
                    50%{transform: translate(0, -10px)}
                    100%{transform: translate(0, 0)}
                }

                .triangle-float3 {
                    animation: float3 6s infinite;
                }
            </style></defs></svg>